:FULLY-SPECIFIED
:FORCE-ALL-JOINTS-BE-3DOF
:DEGREES
679
root 5.35397 16.4043 0.98087 15.6661 -23.2737 0.790162
lfemur -34.8424 24.0446 -6.48949
ltibia 99.0191 -0 0
lfoot 8.64347 -8.10815 -0.34618
ltoes 9.41745 -0 0
rfemur -36.3488 -13.4958 24.8392
rtibia 55.6124 -0 0
rfoot -20.4197 -4.31034 0.166897
rtoes 4.25944 -0 0
lowerback 0.592707 -6.27218 -0.981415
upperback -1.88111 -8.40952 0.15361
thorax -2.09985 -4.18026 0.878009
lowerneck -8.87785 -4.33819 0.244804
upperneck 2.52594 -5.99212 3.29434
head 2.43803 -2.88671 0.721705
lclavicle 1.53064e-14 -6.75868e-15 0
lhumerus 23.2902 -61.035 46.3399
lradius 86.7939 -0 0
lwrist 29.206 0 0
lhand -14.3144 -1.53054 0.0490851
lfingers 7.12502 -0 0
lthumb 11.8247 28.0917 0.0430272
rclavicle 1.53064e-14 -6.75868e-15 0
rhumerus -47.6275 -10.0997 -41.1109
rradius 78.226 -0 0
rwrist -17.8567 0 0
rhand -28.4341 -45.8582 -0.0332476
rfingers 7.12502 -0 0
rthumb -1.80509 -75.8273 -0.0322243
680
root 5.34478 16.4891 1.11889 15.4265 -24.675 0.827256
lfemur -36.1051 23.5561 -3.97251
ltibia 102.266 -0 0
lfoot 9.54934 -8.83938 -0.363527
ltoes 10.8506 -0 0
rfemur -34.6591 -12.7749 24.0799
rtibia 53.6764 -0 0
rfoot -19.8584 -3.74197 0.17525
rtoes 4.5888 -0 0
lowerback 0.845051 -6.23309 -1.04528
upperback -1.85458 -8.36524 -6.49411e-05
thorax -2.22814 -4.15638 0.78511
lowerneck -8.65027 -4.33302 0.224429
upperneck 2.68355 -5.99164 3.40997
head 2.45433 -2.88313 0.765628
lclavicle 1.53064e-14 -6.75868e-15 0
lhumerus 25.7497 -58.8853 42.2184
lradius 86.8932 -0 0
lwrist 29.4216 0 0
lhand -14.721 -1.76117 0.0515402
lfingers 7.12502 -0 0
lthumb 11.4326 27.8821 0.0451793
rclavicle 1.53064e-14 -6.75868e-15 0
rhumerus -47.0361 -9.70988 -39.4968
rradius 80.236 -0 0
rwrist -17.4787 0 0
rhand -28.5869 -45.4425 -0.0349105
rfingers 7.12502 -0 0
rthumb -1.95266 -75.4102 -0.033836
681
root 5.3356 16.5739 1.25691 15.183 -26.0761 0.871307
lfemur -37.3856 23.1189 -1.4532
ltibia 105.514 -0 0
lfoot 10.4554 -9.57079 -0.36931
ltoes 12.2838 -0 0
rfemur -32.9841 -12.0326 23.3447
rtibia 51.7403 -0 0
rfoot -19.297 -3.17355 0.178035
rtoes 4.91817 -0 0
lowerback 1.09733 -6.19371 -1.10896
upperback -1.82817 -8.32089 -0.153702
thorax -2.35646 -4.13272 0.69216
lowerneck -8.4227 -4.32777 0.204075
upperneck 2.84115 -5.99149 3.52561
head 2.47062 -2.87956 0.809551
lclavicle 1.53064e-14 -6.75868e-15 0
lhumerus 27.7777 -56.6568 38.5105
lradius 86.9924 -0 0
lwrist 29.6372 0 0
lhand -15.1276 -1.99181 0.0523586
lfingers 7.12502 -0 0
lthumb 11.0404 27.6725 0.0458966
rclavicle 1.53064e-14 -6.75868e-15 0
rhumerus -46.4343 -9.33661 -37.8805
rradius 82.2461 -0 0
rwrist -17.1007 0 0
rhand -28.7397 -45.0268 -0.0354648
rfingers 7.12502 -0 0
rthumb -2.10024 -74.993 -0.0343732
682
root 5.32641 16.6587 1.39493 14.9353 -27.4771 0.922616
lfemur -38.6817 22.7337 1.06844
ltibia 108.761 -0 0
lfoot 11.3614 -10.3022 -0.363527
ltoes 13.717 -0 0
rfemur -31.3235 -11.2697 22.634
rtibia 49.8043 -0 0
rfoot -18.7356 -2.60514 0.17525
rtoes 5.24753 -0 0
lowerback 1.34955 -6.15406 -1.17246
upperback -1.80188 -8.27647 -0.307301
thorax -2.48481 -4.10926 0.59916
lowerneck -8.19513 -4.32243 0.183743
upperneck 2.99875 -5.99165 3.64124
head 2.48692 -2.876 0.853476
lclavicle 1.53064e-14 -6.75868e-15 0
lhumerus 29.4415 -54.3659 35.1469
lradius 87.0916 -0 0
lwrist 29.8528 0 0
lhand -15.5342 -2.22245 0.0515402
lfingers 7.12502 -0 0
lthumb 10.6483 27.4628 0.0451793
rclavicle 1.53064e-14 -6.75868e-15 0
rhumerus -45.8228 -8.98023 -36.262
rradius 84.2561 -0 0
rwrist -16.7226 0 0
rhand -28.8925 -44.6112 -0.0349105
rfingers 7.12502 -0 0
rthumb -2.24782 -74.5758 -0.033836
